<?xml version="1.0" encoding="UTF-8" standalone="no"?>
<svg
   xmlns:dc="http://purl.org/dc/elements/1.1/"
   xmlns:cc="http://creativecommons.org/ns#"
   xmlns:rdf="http://www.w3.org/1999/02/22-rdf-syntax-ns#"
   xmlns:svg="http://www.w3.org/2000/svg"
   xmlns="http://www.w3.org/2000/svg"
   xmlns:sodipodi="http://sodipodi.sourceforge.net/DTD/sodipodi-0.dtd"
   xmlns:inkscape="http://www.inkscape.org/namespaces/inkscape"
   version="1.1"
   viewBox="0 0 140 80"
   id="svg2"
   xml:space="preserve"
   inkscape:version="0.91 r13725"
   sodipodi:docname="candies.svg"
   width="140"
   height="80"><metadata
     id="metadata49"><rdf:RDF><cc:Work
         rdf:about=""><dc:format>image/svg+xml</dc:format><dc:type
           rdf:resource="http://purl.org/dc/dcmitype/StillImage" /><dc:title></dc:title></cc:Work></rdf:RDF></metadata><sodipodi:namedview
     pagecolor="#ffffff"
     bordercolor="#666666"
     borderopacity="1"
     objecttolerance="10"
     gridtolerance="10"
     guidetolerance="10"
     inkscape:pageopacity="0"
     inkscape:pageshadow="2"
     inkscape:window-width="3448"
     inkscape:window-height="1536"
     id="namedview47"
     showgrid="false"
     inkscape:zoom="14.052817"
     inkscape:cx="74.764778"
     inkscape:cy="39.880508"
     inkscape:window-x="249"
     inkscape:window-y="545"
     inkscape:window-maximized="0"
     inkscape:current-layer="svg2" /><defs
     id="defs6"><clipPath
       id="clipPath18"><path
         d="M 0,38 38,38 38,0 0,0 0,38 Z"
         id="path20"
         inkscape:connector-curvature="0" /></clipPath><clipPath
       id="clipPath34"><path
         d="m 23.795,8.428 0.399,-3.055 c 0.531,-4.074 5.628,-4.3 6.248,-2.126 l 0,0 0.933,4.042 4.041,0.932 c 2.173,0.621 1.949,5.718 -2.125,6.25 l 0,0 -3.055,0.398 c -0.324,0.042 -0.641,0.063 -0.949,0.063 l 0,0 c -3.564,0 -5.981,-2.755 -5.492,-6.504"
         id="path36"
         inkscape:connector-curvature="0" /></clipPath><clipPath
       id="clipPath46"><path
         d="M 8.051,35.588 7.116,31.547 3.075,30.613 C 0.901,29.993 1.127,24.897 5.201,24.365 l 0,0 3.055,-0.399 c 4.074,-0.531 6.973,2.367 6.441,6.441 l 0,0 -0.399,3.055 c -0.316,2.429 -2.256,3.49 -3.902,3.49 l 0,0 c -1.115,0 -2.095,-0.486 -2.345,-1.364"
         id="path48"
         inkscape:connector-curvature="0" /></clipPath><clipPath
       id="clipPath58"><path
         d="M 0,38 38,38 38,0 0,0 0,38 Z"
         id="path60"
         inkscape:connector-curvature="0" /></clipPath><clipPath
       id="clipPath70"><path
         d="m 12.246,27.21 c -4.159,-4.161 -4.158,-10.905 0,-15.064 l 0,0 c 4.161,-4.159 10.905,-4.159 15.064,0 l 0,0 c 4.159,4.159 4.159,10.903 0,15.064 l 0,0 c -2.08,2.079 -4.806,3.119 -7.532,3.119 l 0,0 c -2.726,0 -5.452,-1.04 -7.532,-3.119"
         id="path72"
         inkscape:connector-curvature="0" /></clipPath></defs><g
     transform="matrix(0,1.25,1.25,0,-0.78172489,-0.3511407)"
     id="g12"
     inkscape:export-xdpi="131.39488"
     inkscape:export-ydpi="131.39488"><g
       id="g14"><g
         clip-path="url(#clipPath18)"
         id="g16"><g
           transform="translate(14.2983,33.4624)"
           id="g22"><path
             d="m 0,0 c -0.531,4.075 -5.627,4.299 -6.248,2.125 l -0.934,-4.041 -4.041,-0.933 c -2.174,-0.621 -1.949,-5.717 2.126,-6.248 l 3.054,-0.399 c 4.074,-0.531 6.973,2.367 6.441,6.441 L 0,0 Z"
             id="path24"
             style="fill:#dd2e44;fill-opacity:1;fill-rule:nonzero;stroke:none"
             inkscape:connector-curvature="0" /></g><g
           transform="translate(33.291,14.4707)"
           id="g26"><path
             d="m 0,0 c 4.074,-0.531 4.299,-5.629 2.125,-6.249 l -4.041,-0.933 -0.934,-4.042 c -0.62,-2.173 -5.716,-1.948 -6.248,2.126 l -0.398,3.055 c -0.531,4.074 2.367,6.973 6.441,6.441 L 0,0 Z"
             id="path28"
             style="fill:#dd2e44;fill-opacity:1;fill-rule:nonzero;stroke:none"
             inkscape:connector-curvature="0" /></g></g></g><g
       id="g30"><g
         clip-path="url(#clipPath34)"
         id="g32"><g
           transform="translate(22.5537,16.9023)"
           id="g38"><path
             d="m 0,0 c -2.846,-2.846 -3.734,-6.572 -1.981,-8.324 1.75,-1.751 5.477,-0.864 8.323,1.982 2.846,2.846 3.733,6.573 1.982,8.324 C 6.572,3.734 2.846,2.846 0,0"
             id="path40"
             style="fill:#be1931;fill-opacity:1;fill-rule:nonzero;stroke:none"
             inkscape:connector-curvature="0" /></g></g></g><g
       id="g42"><g
         clip-path="url(#clipPath46)"
         id="g44"><g
           transform="translate(10.6616,28.7944)"
           id="g50"><path
             d="m 0,0 c -2.846,-2.846 -3.733,-6.573 -1.982,-8.324 1.752,-1.752 5.478,-0.864 8.324,1.982 2.847,2.846 3.734,6.572 1.982,8.324 C 6.573,3.733 2.846,2.846 0,0"
             id="path52"
             style="fill:#be1931;fill-opacity:1;fill-rule:nonzero;stroke:none"
             inkscape:connector-curvature="0" /></g></g></g><g
       id="g54"><g
         clip-path="url(#clipPath58)"
         id="g56"><g
           transform="translate(27.3096,12.1465)"
           id="g62"><path
             d="m 0,0 c -4.159,-4.16 -10.903,-4.16 -15.063,0 -4.159,4.159 -4.159,10.903 0,15.063 4.16,4.159 10.904,4.159 15.063,0 C 4.16,10.903 4.16,4.159 0,0"
             id="path64"
             style="fill:#dd2e44;fill-opacity:1;fill-rule:nonzero;stroke:none"
             inkscape:connector-curvature="0" /></g></g></g><g
       id="g66"><g
         clip-path="url(#clipPath70)"
         id="g68"><g
           transform="translate(19.7085,19.9585)"
           id="g74"><path
             d="m 0,0 c -4.184,-2.535 -11.269,-3.17 -12.486,1.679 -1.162,-2.766 -1.21,-5.46 0.246,-7.156 C -10.783,-7.174 -4.02,-6.988 0,0"
             id="path76"
             style="fill:#f5f8fa;fill-opacity:1;fill-rule:nonzero;stroke:none"
             inkscape:connector-curvature="0" /></g><g
           transform="translate(19.75,20)"
           id="g78"><path
             d="m 0,0 c 0.643,-4.85 -2.532,-12.044 -7.461,-11.212 2.066,-2.175 4.514,-3.3 6.652,-2.646 C 1.331,-13.205 4.787,-6.486 0,0"
             id="path80"
             style="fill:#f5f8fa;fill-opacity:1;fill-rule:nonzero;stroke:none"
             inkscape:connector-curvature="0" /></g><g
           transform="translate(19.75,20)"
           id="g82"><path
             d="m 0,0 c 4.65,-0.867 8.234,-5.483 6.392,-10.132 2.557,1.568 5.114,2.564 4.921,4.791 C 11.121,-3.114 7.344,3.328 0,0"
             id="path84"
             style="fill:#f5f8fa;fill-opacity:1;fill-rule:nonzero;stroke:none"
             inkscape:connector-curvature="0" /></g><g
           transform="translate(19.75,20)"
           id="g86"><path
             d="M 0,0 C 1.541,3.333 8.285,6.246 12.168,3.096 11.438,6.006 11.434,8.516 9.25,9 7.067,9.484 -0.976,8.003 0,0"
             id="path88"
             style="fill:#f5f8fa;fill-opacity:1;fill-rule:nonzero;stroke:none"
             inkscape:connector-curvature="0" /></g><g
           transform="translate(19.7915,19.9585)"
           id="g90"><path
             d="m 0,0 c -3.875,2.042 -5.792,8.042 -1.792,11.042 -3,0 -6,0 -7,-2 C -9.792,7.042 -8,1 0,0"
             id="path92"
             style="fill:#f5f8fa;fill-opacity:1;fill-rule:nonzero;stroke:none"
             inkscape:connector-curvature="0" /></g><g
           transform="translate(27.3096,12.1465)"
           id="g94"><path
             d="m 0,0 c -4.159,-4.16 -10.903,-4.16 -15.063,0 -4.159,4.159 -4.159,10.903 0,15.063 4.16,4.159 10.904,4.159 15.063,0 C 4.16,10.903 4.16,4.159 0,0 Z"
             id="path96"
             style="fill:none;stroke:#dd2e44;stroke-width:3;stroke-linecap:butt;stroke-linejoin:miter;stroke-miterlimit:10;stroke-dasharray:none;stroke-opacity:1"
             inkscape:connector-curvature="0" /></g></g></g></g><g
     id="g4363"
     transform="translate(-10.590746,0.4779503)"
     inkscape:export-xdpi="131.39488"
     inkscape:export-ydpi="131.39488"><g
       id="g4183"
       transform="matrix(0,1.25,1.25,0,97.473803,17.043784)"><path
         inkscape:connector-curvature="0"
         style="fill:#2fa9ef;fill-opacity:1;fill-rule:nonzero;stroke:none"
         id="path4185"
         d="m 0,0 c -0.531,4.075 -5.627,4.299 -6.248,2.125 l -0.934,-4.041 -4.041,-0.933 c -2.174,-0.621 -1.949,-5.717 2.126,-6.248 l 3.054,-0.399 c 4.074,-0.531 6.973,2.367 6.441,6.441 L 0,0 Z" /></g><g
       id="g4187"
       transform="matrix(0,1.25,1.25,0,73.734178,40.784659)"><path
         inkscape:connector-curvature="0"
         style="fill:#2fa9ef;fill-opacity:1;fill-rule:nonzero;stroke:none"
         id="path4189"
         d="m 0,0 c 4.074,-0.531 4.299,-5.629 2.125,-6.249 l -4.041,-0.933 -0.934,-4.042 c -0.62,-2.173 -5.716,-1.948 -6.248,2.126 l -0.398,3.055 c -0.531,4.074 2.367,6.973 6.441,6.441 L 0,0 Z" /></g><g
       transform="matrix(0,1.25,1.25,0,55.645803,-0.829091)"
       id="g4191"><g
         id="g4193"
         clip-path="url(#clipPath34)"><g
           id="g4195"
           transform="translate(22.5537,16.9023)"><path
             inkscape:connector-curvature="0"
             style="fill:#1964be;fill-opacity:1;fill-rule:nonzero;stroke:none"
             id="path4197"
             d="m 0,0 c -2.846,-2.846 -3.734,-6.572 -1.981,-8.324 1.75,-1.751 5.477,-0.864 8.323,1.982 2.846,2.846 3.733,6.573 1.982,8.324 C 6.572,3.734 2.846,2.846 0,0" /></g></g></g><g
       transform="matrix(0,1.25,1.25,0,55.645803,-0.829091)"
       id="g4199"><g
         id="g4201"
         clip-path="url(#clipPath46)"><g
           id="g4203"
           transform="translate(10.6616,28.7944)"><path
             inkscape:connector-curvature="0"
             style="fill:#1964be;fill-opacity:1;fill-rule:nonzero;stroke:none"
             id="path4205"
             d="m 0,0 c -2.846,-2.846 -3.733,-6.573 -1.982,-8.324 1.752,-1.752 5.478,-0.864 8.324,1.982 2.847,2.846 3.734,6.572 1.982,8.324 C 6.573,3.733 2.846,2.846 0,0" /></g></g></g><g
       transform="matrix(0,1.25,1.25,0,55.645803,-0.829091)"
       id="g4207"><g
         id="g4209"
         clip-path="url(#clipPath58)"><g
           id="g4211"
           transform="translate(27.3096,12.1465)"><path
             inkscape:connector-curvature="0"
             style="fill:#2fa9ef;fill-opacity:1;fill-rule:nonzero;stroke:none"
             id="path4213"
             d="m 0,0 c -4.159,-4.16 -10.903,-4.16 -15.063,0 -4.159,4.159 -4.159,10.903 0,15.063 4.16,4.159 10.904,4.159 15.063,0 C 4.16,10.903 4.16,4.159 0,0" /></g></g></g><g
       transform="matrix(0,1.25,1.25,0,55.645803,-0.829091)"
       clip-path="url(#clipPath70)"
       id="g4217"><g
         transform="translate(19.7085,19.9585)"
         id="g4219"><path
           d="m 0,0 c -4.184,-2.535 -11.269,-3.17 -12.486,1.679 -1.162,-2.766 -1.21,-5.46 0.246,-7.156 C -10.783,-7.174 -4.02,-6.988 0,0"
           id="path4221"
           style="fill:#f5f8fa;fill-opacity:1;fill-rule:nonzero;stroke:none"
           inkscape:connector-curvature="0" /></g><g
         transform="translate(19.75,20)"
         id="g4223"><path
           d="m 0,0 c 0.643,-4.85 -2.532,-12.044 -7.461,-11.212 2.066,-2.175 4.514,-3.3 6.652,-2.646 C 1.331,-13.205 4.787,-6.486 0,0"
           id="path4225"
           style="fill:#f5f8fa;fill-opacity:1;fill-rule:nonzero;stroke:none"
           inkscape:connector-curvature="0" /></g><g
         transform="translate(19.75,20)"
         id="g4227"><path
           d="m 0,0 c 4.65,-0.867 8.234,-5.483 6.392,-10.132 2.557,1.568 5.114,2.564 4.921,4.791 C 11.121,-3.114 7.344,3.328 0,0"
           id="path4229"
           style="fill:#f5f8fa;fill-opacity:1;fill-rule:nonzero;stroke:none"
           inkscape:connector-curvature="0" /></g><g
         transform="translate(19.75,20)"
         id="g4231"><path
           d="M 0,0 C 1.541,3.333 8.285,6.246 12.168,3.096 11.438,6.006 11.434,8.516 9.25,9 7.067,9.484 -0.976,8.003 0,0"
           id="path4233"
           style="fill:#f5f8fa;fill-opacity:1;fill-rule:nonzero;stroke:none"
           inkscape:connector-curvature="0" /></g><g
         transform="translate(19.7915,19.9585)"
         id="g4235"><path
           d="m 0,0 c -3.875,2.042 -5.792,8.042 -1.792,11.042 -3,0 -6,0 -7,-2 C -9.792,7.042 -8,1 0,0"
           id="path4237"
           style="fill:#f5f8fa;fill-opacity:1;fill-rule:nonzero;stroke:none"
           inkscape:connector-curvature="0" /></g><g
         transform="translate(27.3096,12.1465)"
         id="g4239"><path
           d="m 0,0 c -4.159,-4.16 -10.903,-4.16 -15.063,0 -4.159,4.159 -4.159,10.903 0,15.063 4.16,4.159 10.904,4.159 15.063,0 C 4.16,10.903 4.16,4.159 0,0 Z"
           id="path4241"
           style="fill:none;stroke:#2fa9ef;stroke-width:3;stroke-linecap:butt;stroke-linejoin:miter;stroke-miterlimit:10;stroke-dasharray:none;stroke-opacity:1"
           inkscape:connector-curvature="0" /></g></g></g><g
     transform="matrix(0,1.25,1.25,0,90.891838,-0.3511407)"
     id="g4243"
     inkscape:export-xdpi="131.39651"
     inkscape:export-ydpi="131.39651"><g
       id="g4245"><g
         clip-path="url(#clipPath18)"
         id="g4247"><g
           transform="translate(14.2983,33.4624)"
           id="g4249"><path
             d="m 0,0 c -0.531,4.075 -5.627,4.299 -6.248,2.125 l -0.934,-4.041 -4.041,-0.933 c -2.174,-0.621 -1.949,-5.717 2.126,-6.248 l 3.054,-0.399 c 4.074,-0.531 6.973,2.367 6.441,6.441 L 0,0 Z"
             id="path4251"
             style="fill:#f2ed47;fill-opacity:1;fill-rule:nonzero;stroke:none"
             inkscape:connector-curvature="0" /></g><g
           transform="translate(33.291,14.4707)"
           id="g4253"><path
             d="m 0,0 c 4.074,-0.531 4.299,-5.629 2.125,-6.249 l -4.041,-0.933 -0.934,-4.042 c -0.62,-2.173 -5.716,-1.948 -6.248,2.126 l -0.398,3.055 c -0.531,4.074 2.367,6.973 6.441,6.441 L 0,0 Z"
             id="path4255"
             style="fill:#f2ed47;fill-opacity:1;fill-rule:nonzero;stroke:none"
             inkscape:connector-curvature="0" /></g></g></g><g
       id="g4257"><g
         clip-path="url(#clipPath34)"
         id="g4259"><g
           transform="translate(22.5537,16.9023)"
           id="g4261"><path
             d="m 0,0 c -2.846,-2.846 -3.734,-6.572 -1.981,-8.324 1.75,-1.751 5.477,-0.864 8.323,1.982 2.846,2.846 3.733,6.573 1.982,8.324 C 6.572,3.734 2.846,2.846 0,0"
             id="path4263"
             style="opacity:0.98000004;fill:#f2b615;fill-opacity:1;fill-rule:nonzero;stroke:none"
             inkscape:connector-curvature="0" /></g></g></g><g
       id="g4265"><g
         clip-path="url(#clipPath46)"
         id="g4267"><g
           transform="translate(10.6616,28.7944)"
           id="g4269"><path
             d="m 0,0 c -2.846,-2.846 -3.733,-6.573 -1.982,-8.324 1.752,-1.752 5.478,-0.864 8.324,1.982 2.847,2.846 3.734,6.572 1.982,8.324 C 6.573,3.733 2.846,2.846 0,0"
             id="path4271"
             style="fill:#f2b615;fill-opacity:1;fill-rule:nonzero;stroke:none"
             inkscape:connector-curvature="0" /></g></g></g><g
       id="g4273"><g
         clip-path="url(#clipPath58)"
         id="g4275"><g
           transform="translate(27.3096,12.1465)"
           id="g4277"><path
             d="m 0,0 c -4.159,-4.16 -10.903,-4.16 -15.063,0 -4.159,4.159 -4.159,10.903 0,15.063 4.16,4.159 10.904,4.159 15.063,0 C 4.16,10.903 4.16,4.159 0,0"
             id="path4279"
             style="fill:#f2ed47;fill-opacity:1;fill-rule:nonzero;stroke:none"
             inkscape:connector-curvature="0" /></g></g></g><g
       id="g4281"><g
         clip-path="url(#clipPath70)"
         id="g4283"><g
           transform="translate(19.7085,19.9585)"
           id="g4285"><path
             d="m 0,0 c -4.184,-2.535 -11.269,-3.17 -12.486,1.679 -1.162,-2.766 -1.21,-5.46 0.246,-7.156 C -10.783,-7.174 -4.02,-6.988 0,0"
             id="path4287"
             style="fill:#f5f8fa;fill-opacity:1;fill-rule:nonzero;stroke:none"
             inkscape:connector-curvature="0" /></g><g
           transform="translate(19.75,20)"
           id="g4289"><path
             d="m 0,0 c 0.643,-4.85 -2.532,-12.044 -7.461,-11.212 2.066,-2.175 4.514,-3.3 6.652,-2.646 C 1.331,-13.205 4.787,-6.486 0,0"
             id="path4291"
             style="fill:#f5f8fa;fill-opacity:1;fill-rule:nonzero;stroke:none"
             inkscape:connector-curvature="0" /></g><g
           transform="translate(19.75,20)"
           id="g4293"><path
             d="m 0,0 c 4.65,-0.867 8.234,-5.483 6.392,-10.132 2.557,1.568 5.114,2.564 4.921,4.791 C 11.121,-3.114 7.344,3.328 0,0"
             id="path4295"
             style="fill:#f5f8fa;fill-opacity:1;fill-rule:nonzero;stroke:none"
             inkscape:connector-curvature="0" /></g><g
           transform="translate(19.75,20)"
           id="g4297"><path
             d="M 0,0 C 1.541,3.333 8.285,6.246 12.168,3.096 11.438,6.006 11.434,8.516 9.25,9 7.067,9.484 -0.976,8.003 0,0"
             id="path4299"
             style="fill:#f5f8fa;fill-opacity:1;fill-rule:nonzero;stroke:none"
             inkscape:connector-curvature="0" /></g><g
           transform="translate(19.7915,19.9585)"
           id="g4301"><path
             d="m 0,0 c -3.875,2.042 -5.792,8.042 -1.792,11.042 -3,0 -6,0 -7,-2 C -9.792,7.042 -8,1 0,0"
             id="path4303"
             style="fill:#f5f8fa;fill-opacity:1;fill-rule:nonzero;stroke:none"
             inkscape:connector-curvature="0" /></g><g
           transform="translate(27.3096,12.1465)"
           id="g4305"><path
             d="m 0,0 c -4.159,-4.16 -10.903,-4.16 -15.063,0 -4.159,4.159 -4.159,10.903 0,15.063 4.16,4.159 10.904,4.159 15.063,0 C 4.16,10.903 4.16,4.159 0,0 Z"
             id="path4307"
             style="fill:none;stroke:#f2ed47;stroke-width:3;stroke-linecap:butt;stroke-linejoin:miter;stroke-miterlimit:10;stroke-dasharray:none;stroke-opacity:1"
             inkscape:connector-curvature="0" /></g></g></g></g><g
     id="g5450"
     inkscape:export-xdpi="303.16193"
     inkscape:export-ydpi="303.16193"><circle
       r="12.453019"
       cy="63.668755"
       cx="32.80481"
       id="path4394"
       style="opacity:0.98000004;fill:#9af976;fill-opacity:1;stroke:#2e9507;stroke-width:2;stroke-linecap:butt;stroke-linejoin:round;stroke-miterlimit:4;stroke-dasharray:4, 2;stroke-dashoffset:0;stroke-opacity:1" /><g
       style="fill:#2e9507;fill-opacity:1"
       id="g4415"><rect
         style="opacity:0.98000004;fill:#2e9507;fill-opacity:1;stroke:none;stroke-width:2;stroke-linecap:butt;stroke-linejoin:round;stroke-miterlimit:4;stroke-dasharray:4, 2;stroke-dashoffset:0;stroke-opacity:1"
         id="rect4396"
         width="4.1984468"
         height="15.868705"
         x="13.805061"
         y="55.734402" /><g
         style="fill:#2e9507;fill-opacity:1"
         id="g4408"
         transform="translate(2.1565247e-7,0.2846401)"><path
           inkscape:connector-curvature="0"
           id="path4398"
           d="m 13.805061,57.513405 2.490603,0"
           style="fill:#2e9507;fill-rule:evenodd;stroke:#000000;stroke-width:1px;stroke-linecap:butt;stroke-linejoin:miter;stroke-opacity:1;fill-opacity:1" /><path
           style="fill:#2e9507;fill-rule:evenodd;stroke:#000000;stroke-width:1px;stroke-linecap:butt;stroke-linejoin:miter;stroke-opacity:1;fill-opacity:1"
           d="m 13.805061,69.254823 2.490603,0"
           id="path4400"
           inkscape:connector-curvature="0" /><path
           inkscape:connector-curvature="0"
           id="path4402"
           d="m 15.512905,66.319468 2.490603,0"
           style="fill:#2e9507;fill-rule:evenodd;stroke:#000000;stroke-width:1px;stroke-linecap:butt;stroke-linejoin:miter;stroke-opacity:1;fill-opacity:1" /><path
           style="fill:#2e9507;fill-rule:evenodd;stroke:#000000;stroke-width:1px;stroke-linecap:butt;stroke-linejoin:miter;stroke-opacity:1;fill-opacity:1"
           d="m 13.805061,63.384114 2.490603,0"
           id="path4404"
           inkscape:connector-curvature="0" /><path
           inkscape:connector-curvature="0"
           id="path4406"
           d="m 15.512905,60.44876 2.490603,0"
           style="fill:#2e9507;fill-rule:evenodd;stroke:#000000;stroke-width:1px;stroke-linecap:butt;stroke-linejoin:miter;stroke-opacity:1;fill-opacity:1" /></g></g><g
       transform="translate(33.801048,0)"
       id="g4424"
       style="fill:#2e9507;fill-opacity:1"><rect
         y="55.734402"
         x="13.805061"
         height="15.868705"
         width="4.1984468"
         id="rect4426"
         style="opacity:0.98000004;fill:#2e9507;fill-opacity:1;stroke:none;stroke-width:2;stroke-linecap:butt;stroke-linejoin:round;stroke-miterlimit:4;stroke-dasharray:4, 2;stroke-dashoffset:0;stroke-opacity:1" /><g
         transform="translate(2.1565247e-7,0.2846401)"
         id="g4428"
         style="fill:#2e9507;fill-opacity:1"><path
           style="fill:#2e9507;fill-opacity:1;fill-rule:evenodd;stroke:#000000;stroke-width:1px;stroke-linecap:butt;stroke-linejoin:miter;stroke-opacity:1"
           d="m 13.805061,57.513405 2.490603,0"
           id="path4430"
           inkscape:connector-curvature="0" /><path
           inkscape:connector-curvature="0"
           id="path4432"
           d="m 13.805061,69.254823 2.490603,0"
           style="fill:#2e9507;fill-opacity:1;fill-rule:evenodd;stroke:#000000;stroke-width:1px;stroke-linecap:butt;stroke-linejoin:miter;stroke-opacity:1" /><path
           style="fill:#2e9507;fill-opacity:1;fill-rule:evenodd;stroke:#000000;stroke-width:1px;stroke-linecap:butt;stroke-linejoin:miter;stroke-opacity:1"
           d="m 15.512905,66.319468 2.490603,0"
           id="path4434"
           inkscape:connector-curvature="0" /><path
           inkscape:connector-curvature="0"
           id="path4436"
           d="m 13.805061,63.384114 2.490603,0"
           style="fill:#2e9507;fill-opacity:1;fill-rule:evenodd;stroke:#000000;stroke-width:1px;stroke-linecap:butt;stroke-linejoin:miter;stroke-opacity:1" /><path
           style="fill:#2e9507;fill-opacity:1;fill-rule:evenodd;stroke:#000000;stroke-width:1px;stroke-linecap:butt;stroke-linejoin:miter;stroke-opacity:1"
           d="m 15.512905,60.44876 2.490603,0"
           id="path4438"
           inkscape:connector-curvature="0" /></g></g></g><g
     id="g5105"
     inkscape:export-xdpi="303.16193"
     inkscape:export-ydpi="303.16193"><g
       id="g4572"
       transform="matrix(0.24741645,0.07588209,-0.07588209,0.24741645,18.872884,54.369452)"><g
         id="g4574"
         transform="matrix(0,1.25,1.25,0,97.473803,17.043784)"><path
           inkscape:connector-curvature="0"
           style="fill:#2fa9ef;fill-opacity:1;fill-rule:nonzero;stroke:none"
           id="path4576"
           d="m 0,0 c -0.531,4.075 -5.627,4.299 -6.248,2.125 l -0.934,-4.041 -4.041,-0.933 c -2.174,-0.621 -1.949,-5.717 2.126,-6.248 l 3.054,-0.399 c 4.074,-0.531 6.973,2.367 6.441,6.441 L 0,0 Z" /></g><g
         id="g4578"
         transform="matrix(0,1.25,1.25,0,73.734178,40.784659)"><path
           inkscape:connector-curvature="0"
           style="fill:#2fa9ef;fill-opacity:1;fill-rule:nonzero;stroke:none"
           id="path4580"
           d="m 0,0 c 4.074,-0.531 4.299,-5.629 2.125,-6.249 l -4.041,-0.933 -0.934,-4.042 c -0.62,-2.173 -5.716,-1.948 -6.248,2.126 l -0.398,3.055 c -0.531,4.074 2.367,6.973 6.441,6.441 L 0,0 Z" /></g><g
         transform="matrix(0,1.25,1.25,0,55.645803,-0.829091)"
         id="g4582"><g
           id="g4584"
           clip-path="url(#clipPath34)"><g
             id="g4586"
             transform="translate(22.5537,16.9023)"><path
               inkscape:connector-curvature="0"
               style="fill:#1964be;fill-opacity:1;fill-rule:nonzero;stroke:none"
               id="path4588"
               d="m 0,0 c -2.846,-2.846 -3.734,-6.572 -1.981,-8.324 1.75,-1.751 5.477,-0.864 8.323,1.982 2.846,2.846 3.733,6.573 1.982,8.324 C 6.572,3.734 2.846,2.846 0,0" /></g></g></g><g
         transform="matrix(0,1.25,1.25,0,55.645803,-0.829091)"
         id="g4590"><g
           id="g4592"
           clip-path="url(#clipPath46)"><g
             id="g4594"
             transform="translate(10.6616,28.7944)"><path
               inkscape:connector-curvature="0"
               style="fill:#1964be;fill-opacity:1;fill-rule:nonzero;stroke:none"
               id="path4596"
               d="m 0,0 c -2.846,-2.846 -3.733,-6.573 -1.982,-8.324 1.752,-1.752 5.478,-0.864 8.324,1.982 2.847,2.846 3.734,6.572 1.982,8.324 C 6.573,3.733 2.846,2.846 0,0" /></g></g></g><g
         transform="matrix(0,1.25,1.25,0,55.645803,-0.829091)"
         id="g4598"><g
           id="g4600"
           clip-path="url(#clipPath58)"><g
             id="g4602"
             transform="translate(27.3096,12.1465)"><path
               inkscape:connector-curvature="0"
               style="fill:#2fa9ef;fill-opacity:1;fill-rule:nonzero;stroke:none"
               id="path4604"
               d="m 0,0 c -4.159,-4.16 -10.903,-4.16 -15.063,0 -4.159,4.159 -4.159,10.903 0,15.063 4.16,4.159 10.904,4.159 15.063,0 C 4.16,10.903 4.16,4.159 0,0" /></g></g></g><g
         transform="matrix(0,1.25,1.25,0,55.645803,-0.829091)"
         clip-path="url(#clipPath70)"
         id="g4606"><g
           transform="translate(19.7085,19.9585)"
           id="g4608"><path
             d="m 0,0 c -4.184,-2.535 -11.269,-3.17 -12.486,1.679 -1.162,-2.766 -1.21,-5.46 0.246,-7.156 C -10.783,-7.174 -4.02,-6.988 0,0"
             id="path4610"
             style="fill:#f5f8fa;fill-opacity:1;fill-rule:nonzero;stroke:none"
             inkscape:connector-curvature="0" /></g><g
           transform="translate(19.75,20)"
           id="g4612"><path
             d="m 0,0 c 0.643,-4.85 -2.532,-12.044 -7.461,-11.212 2.066,-2.175 4.514,-3.3 6.652,-2.646 C 1.331,-13.205 4.787,-6.486 0,0"
             id="path4614"
             style="fill:#f5f8fa;fill-opacity:1;fill-rule:nonzero;stroke:none"
             inkscape:connector-curvature="0" /></g><g
           transform="translate(19.75,20)"
           id="g4616"><path
             d="m 0,0 c 4.65,-0.867 8.234,-5.483 6.392,-10.132 2.557,1.568 5.114,2.564 4.921,4.791 C 11.121,-3.114 7.344,3.328 0,0"
             id="path4618"
             style="fill:#f5f8fa;fill-opacity:1;fill-rule:nonzero;stroke:none"
             inkscape:connector-curvature="0" /></g><g
           transform="translate(19.75,20)"
           id="g4620"><path
             d="M 0,0 C 1.541,3.333 8.285,6.246 12.168,3.096 11.438,6.006 11.434,8.516 9.25,9 7.067,9.484 -0.976,8.003 0,0"
             id="path4622"
             style="fill:#f5f8fa;fill-opacity:1;fill-rule:nonzero;stroke:none"
             inkscape:connector-curvature="0" /></g><g
           transform="translate(19.7915,19.9585)"
           id="g4624"><path
             d="m 0,0 c -3.875,2.042 -5.792,8.042 -1.792,11.042 -3,0 -6,0 -7,-2 C -9.792,7.042 -8,1 0,0"
             id="path4626"
             style="fill:#f5f8fa;fill-opacity:1;fill-rule:nonzero;stroke:none"
             inkscape:connector-curvature="0" /></g><g
           transform="translate(27.3096,12.1465)"
           id="g4628"><path
             d="m 0,0 c -4.159,-4.16 -10.903,-4.16 -15.063,0 -4.159,4.159 -4.159,10.903 0,15.063 4.16,4.159 10.904,4.159 15.063,0 C 4.16,10.903 4.16,4.159 0,0 Z"
             id="path4630"
             style="fill:none;stroke:#2fa9ef;stroke-width:3;stroke-linecap:butt;stroke-linejoin:miter;stroke-miterlimit:10;stroke-dasharray:none;stroke-opacity:1"
             inkscape:connector-curvature="0" /></g></g></g><g
       transform="matrix(0.21306457,-0.24341074,-0.24341074,-0.21306457,32.703918,67.988018)"
       id="g4632"><g
         id="g4634"><g
           clip-path="url(#clipPath18)"
           id="g4636"><g
             transform="translate(14.2983,33.4624)"
             id="g4638"><path
               d="m 0,0 c -0.531,4.075 -5.627,4.299 -6.248,2.125 l -0.934,-4.041 -4.041,-0.933 c -2.174,-0.621 -1.949,-5.717 2.126,-6.248 l 3.054,-0.399 c 4.074,-0.531 6.973,2.367 6.441,6.441 L 0,0 Z"
               id="path4640"
               style="fill:#dd2e44;fill-opacity:1;fill-rule:nonzero;stroke:none"
               inkscape:connector-curvature="0" /></g><g
             transform="translate(33.291,14.4707)"
             id="g4642"><path
               d="m 0,0 c 4.074,-0.531 4.299,-5.629 2.125,-6.249 l -4.041,-0.933 -0.934,-4.042 c -0.62,-2.173 -5.716,-1.948 -6.248,2.126 l -0.398,3.055 c -0.531,4.074 2.367,6.973 6.441,6.441 L 0,0 Z"
               id="path4644"
               style="fill:#dd2e44;fill-opacity:1;fill-rule:nonzero;stroke:none"
               inkscape:connector-curvature="0" /></g></g></g><g
         id="g4646"><g
           clip-path="url(#clipPath34)"
           id="g4648"><g
             transform="translate(22.5537,16.9023)"
             id="g4650"><path
               d="m 0,0 c -2.846,-2.846 -3.734,-6.572 -1.981,-8.324 1.75,-1.751 5.477,-0.864 8.323,1.982 2.846,2.846 3.733,6.573 1.982,8.324 C 6.572,3.734 2.846,2.846 0,0"
               id="path4652"
               style="fill:#be1931;fill-opacity:1;fill-rule:nonzero;stroke:none"
               inkscape:connector-curvature="0" /></g></g></g><g
         id="g4654"><g
           clip-path="url(#clipPath46)"
           id="g4656"><g
             transform="translate(10.6616,28.7944)"
             id="g4658"><path
               d="m 0,0 c -2.846,-2.846 -3.733,-6.573 -1.982,-8.324 1.752,-1.752 5.478,-0.864 8.324,1.982 2.847,2.846 3.734,6.572 1.982,8.324 C 6.573,3.733 2.846,2.846 0,0"
               id="path4660"
               style="fill:#be1931;fill-opacity:1;fill-rule:nonzero;stroke:none"
               inkscape:connector-curvature="0" /></g></g></g><g
         id="g4662"><g
           clip-path="url(#clipPath58)"
           id="g4664"><g
             transform="translate(27.3096,12.1465)"
             id="g4666"><path
               d="m 0,0 c -4.159,-4.16 -10.903,-4.16 -15.063,0 -4.159,4.159 -4.159,10.903 0,15.063 4.16,4.159 10.904,4.159 15.063,0 C 4.16,10.903 4.16,4.159 0,0"
               id="path4668"
               style="fill:#dd2e44;fill-opacity:1;fill-rule:nonzero;stroke:none"
               inkscape:connector-curvature="0" /></g></g></g><g
         id="g4670"><g
           clip-path="url(#clipPath70)"
           id="g4672"><g
             transform="translate(19.7085,19.9585)"
             id="g4674"><path
               d="m 0,0 c -4.184,-2.535 -11.269,-3.17 -12.486,1.679 -1.162,-2.766 -1.21,-5.46 0.246,-7.156 C -10.783,-7.174 -4.02,-6.988 0,0"
               id="path4676"
               style="fill:#f5f8fa;fill-opacity:1;fill-rule:nonzero;stroke:none"
               inkscape:connector-curvature="0" /></g><g
             transform="translate(19.75,20)"
             id="g4678"><path
               d="m 0,0 c 0.643,-4.85 -2.532,-12.044 -7.461,-11.212 2.066,-2.175 4.514,-3.3 6.652,-2.646 C 1.331,-13.205 4.787,-6.486 0,0"
               id="path4680"
               style="fill:#f5f8fa;fill-opacity:1;fill-rule:nonzero;stroke:none"
               inkscape:connector-curvature="0" /></g><g
             transform="translate(19.75,20)"
             id="g4682"><path
               d="m 0,0 c 4.65,-0.867 8.234,-5.483 6.392,-10.132 2.557,1.568 5.114,2.564 4.921,4.791 C 11.121,-3.114 7.344,3.328 0,0"
               id="path4684"
               style="fill:#f5f8fa;fill-opacity:1;fill-rule:nonzero;stroke:none"
               inkscape:connector-curvature="0" /></g><g
             transform="translate(19.75,20)"
             id="g4686"><path
               d="M 0,0 C 1.541,3.333 8.285,6.246 12.168,3.096 11.438,6.006 11.434,8.516 9.25,9 7.067,9.484 -0.976,8.003 0,0"
               id="path4688"
               style="fill:#f5f8fa;fill-opacity:1;fill-rule:nonzero;stroke:none"
               inkscape:connector-curvature="0" /></g><g
             transform="translate(19.7915,19.9585)"
             id="g4690"><path
               d="m 0,0 c -3.875,2.042 -5.792,8.042 -1.792,11.042 -3,0 -6,0 -7,-2 C -9.792,7.042 -8,1 0,0"
               id="path4692"
               style="fill:#f5f8fa;fill-opacity:1;fill-rule:nonzero;stroke:none"
               inkscape:connector-curvature="0" /></g><g
             transform="translate(27.3096,12.1465)"
             id="g4694"><path
               d="m 0,0 c -4.159,-4.16 -10.903,-4.16 -15.063,0 -4.159,4.159 -4.159,10.903 0,15.063 4.16,4.159 10.904,4.159 15.063,0 C 4.16,10.903 4.16,4.159 0,0 Z"
               id="path4696"
               style="fill:none;stroke:#dd2e44;stroke-width:3;stroke-linecap:butt;stroke-linejoin:miter;stroke-miterlimit:10;stroke-dasharray:none;stroke-opacity:1"
               inkscape:connector-curvature="0" /></g></g></g></g><g
       transform="matrix(0.32266815,0.02303422,0.02303422,-0.32266815,21.210755,71.428468)"
       id="g4506"><g
         id="g4508"><g
           clip-path="url(#clipPath18)"
           id="g4510"><g
             transform="translate(14.2983,33.4624)"
             id="g4512"><path
               d="m 0,0 c -0.531,4.075 -5.627,4.299 -6.248,2.125 l -0.934,-4.041 -4.041,-0.933 c -2.174,-0.621 -1.949,-5.717 2.126,-6.248 l 3.054,-0.399 c 4.074,-0.531 6.973,2.367 6.441,6.441 L 0,0 Z"
               id="path4514"
               style="fill:#f2ed47;fill-opacity:1;fill-rule:nonzero;stroke:none"
               inkscape:connector-curvature="0" /></g><g
             transform="translate(33.291,14.4707)"
             id="g4516"><path
               d="m 0,0 c 4.074,-0.531 4.299,-5.629 2.125,-6.249 l -4.041,-0.933 -0.934,-4.042 c -0.62,-2.173 -5.716,-1.948 -6.248,2.126 l -0.398,3.055 c -0.531,4.074 2.367,6.973 6.441,6.441 L 0,0 Z"
               id="path4518"
               style="fill:#f2ed47;fill-opacity:1;fill-rule:nonzero;stroke:none"
               inkscape:connector-curvature="0" /></g></g></g><g
         id="g4520"><g
           clip-path="url(#clipPath34)"
           id="g4522"><g
             transform="translate(22.5537,16.9023)"
             id="g4524"><path
               d="m 0,0 c -2.846,-2.846 -3.734,-6.572 -1.981,-8.324 1.75,-1.751 5.477,-0.864 8.323,1.982 2.846,2.846 3.733,6.573 1.982,8.324 C 6.572,3.734 2.846,2.846 0,0"
               id="path4526"
               style="opacity:0.98000004;fill:#f2b615;fill-opacity:1;fill-rule:nonzero;stroke:none"
               inkscape:connector-curvature="0" /></g></g></g><g
         id="g4528"><g
           clip-path="url(#clipPath46)"
           id="g4530"><g
             transform="translate(10.6616,28.7944)"
             id="g4532"><path
               d="m 0,0 c -2.846,-2.846 -3.733,-6.573 -1.982,-8.324 1.752,-1.752 5.478,-0.864 8.324,1.982 2.847,2.846 3.734,6.572 1.982,8.324 C 6.573,3.733 2.846,2.846 0,0"
               id="path4534"
               style="fill:#f2b615;fill-opacity:1;fill-rule:nonzero;stroke:none"
               inkscape:connector-curvature="0" /></g></g></g><g
         id="g4536"><g
           clip-path="url(#clipPath58)"
           id="g4538"><g
             transform="translate(27.3096,12.1465)"
             id="g4540"><path
               d="m 0,0 c -4.159,-4.16 -10.903,-4.16 -15.063,0 -4.159,4.159 -4.159,10.903 0,15.063 4.16,4.159 10.904,4.159 15.063,0 C 4.16,10.903 4.16,4.159 0,0"
               id="path4542"
               style="fill:#f2ed47;fill-opacity:1;fill-rule:nonzero;stroke:none"
               inkscape:connector-curvature="0" /></g></g></g><g
         id="g4544"><g
           clip-path="url(#clipPath70)"
           id="g4546"><g
             transform="translate(19.7085,19.9585)"
             id="g4548"><path
               d="m 0,0 c -4.184,-2.535 -11.269,-3.17 -12.486,1.679 -1.162,-2.766 -1.21,-5.46 0.246,-7.156 C -10.783,-7.174 -4.02,-6.988 0,0"
               id="path4550"
               style="fill:#f5f8fa;fill-opacity:1;fill-rule:nonzero;stroke:none"
               inkscape:connector-curvature="0" /></g><g
             transform="translate(19.75,20)"
             id="g4552"><path
               d="m 0,0 c 0.643,-4.85 -2.532,-12.044 -7.461,-11.212 2.066,-2.175 4.514,-3.3 6.652,-2.646 C 1.331,-13.205 4.787,-6.486 0,0"
               id="path4554"
               style="fill:#f5f8fa;fill-opacity:1;fill-rule:nonzero;stroke:none"
               inkscape:connector-curvature="0" /></g><g
             transform="translate(19.75,20)"
             id="g4556"><path
               d="m 0,0 c 4.65,-0.867 8.234,-5.483 6.392,-10.132 2.557,1.568 5.114,2.564 4.921,4.791 C 11.121,-3.114 7.344,3.328 0,0"
               id="path4558"
               style="fill:#f5f8fa;fill-opacity:1;fill-rule:nonzero;stroke:none"
               inkscape:connector-curvature="0" /></g><g
             transform="translate(19.75,20)"
             id="g4560"><path
               d="M 0,0 C 1.541,3.333 8.285,6.246 12.168,3.096 11.438,6.006 11.434,8.516 9.25,9 7.067,9.484 -0.976,8.003 0,0"
               id="path4562"
               style="fill:#f5f8fa;fill-opacity:1;fill-rule:nonzero;stroke:none"
               inkscape:connector-curvature="0" /></g><g
             transform="translate(19.7915,19.9585)"
             id="g4564"><path
               d="m 0,0 c -3.875,2.042 -5.792,8.042 -1.792,11.042 -3,0 -6,0 -7,-2 C -9.792,7.042 -8,1 0,0"
               id="path4566"
               style="fill:#f5f8fa;fill-opacity:1;fill-rule:nonzero;stroke:none"
               inkscape:connector-curvature="0" /></g><g
             transform="translate(27.3096,12.1465)"
             id="g4568"><path
               d="m 0,0 c -4.159,-4.16 -10.903,-4.16 -15.063,0 -4.159,4.159 -4.159,10.903 0,15.063 4.16,4.159 10.904,4.159 15.063,0 C 4.16,10.903 4.16,4.159 0,0 Z"
               id="path4570"
               style="fill:none;stroke:#f2ed47;stroke-width:3;stroke-linecap:butt;stroke-linejoin:miter;stroke-miterlimit:10;stroke-dasharray:none;stroke-opacity:1"
               inkscape:connector-curvature="0" /></g></g></g></g></g><g
     id="g5431"
     inkscape:export-xdpi="303.16193"
     inkscape:export-ydpi="303.16193"><circle
       style="opacity:0.98000004;fill:#9af976;fill-opacity:1;stroke:#2e9507;stroke-width:2;stroke-linecap:butt;stroke-linejoin:round;stroke-miterlimit:4;stroke-dasharray:4, 2;stroke-dashoffset:0;stroke-opacity:1"
       id="circle5203"
       cx="77.635681"
       cy="63.668755"
       r="12.453019" /><g
       transform="translate(44.83087,0)"
       id="g5205"
       style="fill:#2e9507;fill-opacity:1"><rect
         y="55.734402"
         x="13.805061"
         height="15.868705"
         width="4.1984468"
         id="rect5207"
         style="opacity:0.98000004;fill:#2e9507;fill-opacity:1;stroke:none;stroke-width:2;stroke-linecap:butt;stroke-linejoin:round;stroke-miterlimit:4;stroke-dasharray:4, 2;stroke-dashoffset:0;stroke-opacity:1" /><g
         transform="translate(2.1565247e-7,0.2846401)"
         id="g5209"
         style="fill:#2e9507;fill-opacity:1"><path
           style="fill:#2e9507;fill-opacity:1;fill-rule:evenodd;stroke:#000000;stroke-width:1px;stroke-linecap:butt;stroke-linejoin:miter;stroke-opacity:1"
           d="m 13.805061,57.513405 2.490603,0"
           id="path5211"
           inkscape:connector-curvature="0" /><path
           inkscape:connector-curvature="0"
           id="path5213"
           d="m 13.805061,69.254823 2.490603,0"
           style="fill:#2e9507;fill-opacity:1;fill-rule:evenodd;stroke:#000000;stroke-width:1px;stroke-linecap:butt;stroke-linejoin:miter;stroke-opacity:1" /><path
           style="fill:#2e9507;fill-opacity:1;fill-rule:evenodd;stroke:#000000;stroke-width:1px;stroke-linecap:butt;stroke-linejoin:miter;stroke-opacity:1"
           d="m 15.512905,66.319468 2.490603,0"
           id="path5215"
           inkscape:connector-curvature="0" /><path
           inkscape:connector-curvature="0"
           id="path5217"
           d="m 13.805061,63.384114 2.490603,0"
           style="fill:#2e9507;fill-opacity:1;fill-rule:evenodd;stroke:#000000;stroke-width:1px;stroke-linecap:butt;stroke-linejoin:miter;stroke-opacity:1" /><path
           style="fill:#2e9507;fill-opacity:1;fill-rule:evenodd;stroke:#000000;stroke-width:1px;stroke-linecap:butt;stroke-linejoin:miter;stroke-opacity:1"
           d="m 15.512905,60.44876 2.490603,0"
           id="path5219"
           inkscape:connector-curvature="0" /></g></g><g
       style="fill:#2e9507;fill-opacity:1"
       id="g5221"
       transform="translate(78.631918,0)"><rect
         style="opacity:0.98000004;fill:#2e9507;fill-opacity:1;stroke:none;stroke-width:2;stroke-linecap:butt;stroke-linejoin:round;stroke-miterlimit:4;stroke-dasharray:4, 2;stroke-dashoffset:0;stroke-opacity:1"
         id="rect5223"
         width="4.1984468"
         height="15.868705"
         x="13.805061"
         y="55.734402" /><g
         style="fill:#2e9507;fill-opacity:1"
         id="g5225"
         transform="translate(2.1565247e-7,0.2846401)"><path
           inkscape:connector-curvature="0"
           id="path5227"
           d="m 13.805061,57.513405 2.490603,0"
           style="fill:#2e9507;fill-opacity:1;fill-rule:evenodd;stroke:#000000;stroke-width:1px;stroke-linecap:butt;stroke-linejoin:miter;stroke-opacity:1" /><path
           style="fill:#2e9507;fill-opacity:1;fill-rule:evenodd;stroke:#000000;stroke-width:1px;stroke-linecap:butt;stroke-linejoin:miter;stroke-opacity:1"
           d="m 13.805061,69.254823 2.490603,0"
           id="path5229"
           inkscape:connector-curvature="0" /><path
           inkscape:connector-curvature="0"
           id="path5231"
           d="m 15.512905,66.319468 2.490603,0"
           style="fill:#2e9507;fill-opacity:1;fill-rule:evenodd;stroke:#000000;stroke-width:1px;stroke-linecap:butt;stroke-linejoin:miter;stroke-opacity:1" /><path
           style="fill:#2e9507;fill-opacity:1;fill-rule:evenodd;stroke:#000000;stroke-width:1px;stroke-linecap:butt;stroke-linejoin:miter;stroke-opacity:1"
           d="m 13.805061,63.384114 2.490603,0"
           id="path5233"
           inkscape:connector-curvature="0" /><path
           inkscape:connector-curvature="0"
           id="path5235"
           d="m 15.512905,60.44876 2.490603,0"
           style="fill:#2e9507;fill-opacity:1;fill-rule:evenodd;stroke:#000000;stroke-width:1px;stroke-linecap:butt;stroke-linejoin:miter;stroke-opacity:1" /></g></g></g></svg>